<?xml version="1.0" encoding="utf-8"?>
<!-- Generator: Adobe Illustrator 24.1.2, SVG Export Plug-In . SVG Version: 6.00 Build 0)  -->
<svg version="1.1" id="b52d7e2d-d80f-4111-b6ed-d15502ee1edd"
     xmlns="http://www.w3.org/2000/svg" x="0px" y="0px" viewBox="0 0 811 763.7"
     style="enable-background:new 0 0 811 763.7;" xml:space="preserve">
<style type="text/css">
	.st0{fill:#E6E6E6;}
	.st1{opacity:0.1;enable-background:new    ;}
	.st2{fill:#333333;}
	.st3{fill:#F2F2F2;}
	.st4{fill:#688EA6;}
</style>
    <polygon class="st0" points="516.3,474 516.3,659 547.3,709.4 549.6,713.3 671.7,713.3 674.2,474 "/>
    <polygon class="st1" points="516.3,474 516.3,659 547.3,709.4 549.2,474 "/>
    <polygon class="st0" points="221.6,469.1 221.6,654.1 190.6,704.5 188.3,708.3 66.2,708.3 63.7,469.1 "/>
    <polygon class="st1" points="221.6,469.1 221.6,654.1 190.6,704.5 188.7,469.1 "/>
    <polygon class="st0" points="711.2,465.4 711.2,476.5 47.7,476.5 47.7,460.5 109.3,428.4 656.9,428.4 "/>
    <polygon class="st1" points="711.2,465.4 711.2,476.5 47.7,476.5 47.7,460.5 "/>
    <polygon class="st2" points="142.6,520.9 113,520.9 100.7,512.3 156.2,512.3 "/>
    <polygon class="st2" points="142.6,556.6 113,556.6 100.7,548 156.2,548 "/>
    <polygon class="st2" points="142.6,607.2 113,607.2 100.7,598.6 156.2,598.6 "/>
    <polygon class="st2" points="142.6,657.8 113,657.8 100.7,649.1 156.2,649.1 "/>
    <polygon class="st2" points="595.3,525.8 624.9,525.8 637.2,517.2 581.7,517.2 "/>
    <polygon class="st2" points="595.3,561.6 624.9,561.6 637.2,552.9 581.7,552.9 "/>
    <polygon class="st2" points="595.3,612.1 624.9,612.1 637.2,603.5 581.7,603.5 "/>
    <polygon class="st2" points="595.3,662.7 624.9,662.7 637.2,654.1 581.7,654.1 "/>
    <path class="st2" d="M615.4,214.5H366.2c-5.2,0-9.4,4.2-9.4,9.4l0,0v167.9c0,5.2,4.2,9.4,9.4,9.4l0,0h94.6l-3.5,22.6
	c0,0-20.3,10.8-6,11.1s81.3,0,81.3,0s13,0-7.6-11.4l-3.3-22.3h93.7c5.2,0,9.4-4.2,9.4-9.4l0,0V223.9
	C624.8,218.7,620.6,214.5,615.4,214.5L615.4,214.5z"/>
    <rect x="365.8" y="224.4" class="st3" width="250" height="139.9"/>
    <circle class="st3" cx="490.8" cy="220" r="1.6"/>
    <circle class="st3" cx="490.8" cy="388.3" r="6"/>
    <polygon class="st2" points="481.5,452 481.5,455.1 311.2,455.1 311.2,452.6 311.4,452 315.6,440.6 478,440.6 "/>
    <path class="st2" d="M547,448.9c-0.3,1.3-1.5,2.7-4.1,4c-9.5,4.7-28.8-1.3-28.8-1.3s-14.9-2.5-14.9-9.2c0.4-0.3,0.9-0.5,1.3-0.8
	c4-2.1,17.2-7.3,40.7,0.2c1.7,0.5,3.3,1.6,4.5,2.9C546.7,445.9,547.2,447.4,547,448.9z"/>
    <path class="st1" d="M547,448.9c-11.6,4.5-22,4.8-32.6-2.6c-4-3-8.9-4.6-13.9-4.6c4-2.1,17.2-7.3,40.7,0.2c1.7,0.5,3.3,1.6,4.5,2.9
	C546.7,445.9,547.2,447.4,547,448.9z"/>
    <ellipse class="st3" cx="532.4" cy="445" rx="4.1" ry="1.3"/>
    <polygon class="st1" points="481.5,452 481.5,455.1 311.2,455.1 311.2,452.6 311.4,452 "/>
    <g id="f3c2397c-d780-4cc6-97d8-1503d8277a2c">
	<rect id="ad41612f-86f7-46b2-a964-3a5da7bcf3cf" x="437.4" y="270.4" class="st4" width="29.8" height="7.2"/>
        <rect id="b9a0b375-cc2a-4c59-8850-661af54e4f62" x="559.7" y="270.4" class="st4" width="10.5" height="7.2"/>
        <rect id="e174c2ab-9bc5-41ec-b37c-b06fbf8a9878" x="580.7" y="270.4" class="st4" width="10.5" height="7.2"/>
        <rect id="ba2479ac-4c7d-43b4-a028-73b1e20e4002" x="477.6" y="270.4" class="st4" width="71.1" height="7.2"/>
        <rect id="ac60ef86-00f2-480b-8171-28b6fdfc1958" x="399.9" y="316.6" class="st4" width="29.8" height="7.2"/>
        <rect id="b3d8298d-cd65-487a-8b19-4cee946356e7" x="522.3" y="316.6" class="st4" width="10.5" height="7.2"/>
        <rect id="ed27f15f-f0c4-4569-8330-a6688f8e356c" x="543.2" y="316.6" class="st4" width="10.5" height="7.2"/>
        <rect id="f685c005-adaf-4d60-acda-005b037d82a6" x="440.2" y="316.6" class="st4" width="71.1" height="7.2"/>
        <rect id="eca7c7fc-83f8-48ca-a588-6606db47af3f" x="522.8" y="286.3" class="st4" width="29.8" height="7.2"/>
        <rect id="a71b5b2f-f8b9-481d-a301-5e3357e5fe42" x="563" y="286.3" class="st4" width="29.8" height="7.2"/>
        <rect id="abb3a25a-f854-41fc-8391-e6ad9fbe2417" x="399.9" y="286.3" class="st4" width="10.5" height="7.2"/>
        <rect id="add2b425-b775-4eb5-9c25-8c4c14f957c9" x="420.9" y="286.3" class="st4" width="10.5" height="7.2"/>
        <rect id="b7159612-3b84-4b0b-a885-612eaab04c06" x="441.8" y="286.3" class="st4" width="71.1" height="7.2"/>
        <rect id="edfc7301-4de5-47dc-80e2-1ae2da982d6d" x="461.1" y="301.8" class="st4" width="29.8" height="7.2"/>
        <rect id="e1009f91-6275-4375-80fa-0d778e331fdc" x="420.9" y="301.8" class="st4" width="29.8" height="7.2"/>
        <rect id="a060fb9f-1f1a-4862-9a69-16dd49199e18" x="399.9" y="301.8" class="st4" width="10.5" height="7.2"/>
        <rect id="b6754d5f-104f-449c-b9a9-cf9ac82bf5fe" x="582.3" y="301.8" class="st4" width="10.5" height="7.2"/>
        <rect id="e6ed1ccd-2cfd-450f-a339-07df3a1ee6bb" x="500.8" y="301.8" class="st4" width="71.1" height="7.2"/>
</g>
    <image style="overflow:visible;enable-background:new    ;" width="434" height="866"
           href="/illustrations/homepage/greeting-image/1652180860926.png"
           transform="matrix(0.7459 0.1048 -0.1048 0.7459 23.0805 35.854)">
</image>
</svg>
