<?xml version="1.0" encoding="utf-8"?>
<!-- Generator: Adobe Illustrator 24.1.2, SVG Export Plug-In . SVG Version: 6.00 Build 0)  -->
<svg version="1.1" id="f0a8f4ba-cc2b-4400-9e08-d246a0bad060"
	 xmlns="http://www.w3.org/2000/svg" xmlns:xlink="http://www.w3.org/1999/xlink" x="0px" y="0px" viewBox="0 0 1098.8 632.4"
	 style="enable-background:new 0 0 1098.8 632.4;" xml:space="preserve">
<style type="text/css">
	.st0{fill:#E6E6E6;}
	.st1{fill:#688EA6;}
	.st2{fill:#333333;}
	.st3{fill:#FFFFFF;}
	.st4{opacity:0.3;fill:#688EA6;enable-background:new    ;}
</style>
<ellipse class="st0" cx="549.4" cy="600.8" rx="549.4" ry="31.6"/>
<rect x="175" class="st0" width="825.3" height="26.3"/>
<circle class="st1" cx="197.1" cy="12.7" r="6.8"/>
<circle class="st1" cx="219.1" cy="12.7" r="6.8"/>
<circle class="st1" cx="241.2" cy="12.7" r="6.8"/>
<polygon class="st2" points="175.6,415.3 175,415.8 175,592.9 1000.3,592.9 1000.3,281.8 990.4,282.5 "/>
<rect x="234.5" y="175.6" class="st2" width="230.5" height="9.3"/>
<rect x="234.5" y="196.1" class="st2" width="230.5" height="9.3"/>
<rect x="234.5" y="216.5" class="st2" width="78.1" height="9.3"/>
<rect x="704.5" y="433.6" class="st3" width="230.5" height="9.3"/>
<rect x="704.5" y="454.1" class="st3" width="230.5" height="9.3"/>
<rect x="704.5" y="474.5" class="st3" width="78.1" height="9.3"/>
<circle class="st0" cx="561.3" cy="575.3" r="9.1"/>
<circle class="st0" cx="587.6" cy="576.2" r="9.1"/>
<circle class="st0" cx="613.9" cy="577.1" r="9.1"/>
<circle class="st2" cx="587.7" cy="576.2" r="7.3"/>
<rect x="310.5" y="282" class="st2" width="78.1" height="17.8"/>
<rect x="774.5" y="523" class="st3" width="78.1" height="17.8"/>
<circle class="st4" cx="350" cy="291" r="54"/>
<circle class="st4" cx="350" cy="291" r="36"/>
<circle class="st1" cx="350" cy="291" r="25"/>
<circle class="st4" cx="804.4" cy="157.2" r="54"/>
<circle class="st4" cx="804.4" cy="157.2" r="36"/>
<circle class="st1" cx="804.4" cy="157.2" r="25"/>
<circle class="st4" cx="814" cy="532" r="54"/>
<circle class="st4" cx="814" cy="532" r="36"/>
<circle class="st1" cx="814" cy="532" r="25"/>
<path class="st0" d="M963.2,563.8c12.3,21,37.1,29.3,37.1,29.3s4.9-25.7-7.4-46.7s-37.1-29.3-37.1-29.3S950.9,542.8,963.2,563.8z"/>
<path class="st1" d="M970.9,556.4c21.3,11.8,30.2,36.4,30.2,36.4s-25.6,5.5-46.9-6.3S924,550.2,924,550.2S949.6,544.7,970.9,556.4z"
	/>
<g>
	
		<image style="overflow:visible;opacity:0.7;" width="200" height="612" xlink:href="C61F8A6.png"  transform="matrix(1 0 0 1 72 29.3704)">
	</image>
	<g>
		
			<image style="overflow:visible;" width="251" height="865" xlink:href="1652181456423.png"  transform="matrix(0.6725 0 0 0.6725 80.987 37.3404)">
		</image>
	</g>
</g>
</svg>
